<svg width="10" height="10" viewBox="0 0 10 10" fill="none" xmlns="http://www.w3.org/2000/svg">
<path d="M6.60709 2.22696V1.72276C6.60709 1.16583 6.1274 0.714355 5.53566 0.714355H4.46423C3.8725 0.714355 3.3928 1.16583 3.3928 1.72276V2.22696M4.99995 5.25217V7.26898M0.714233 7.26898V8.27738C0.714233 8.83431 1.19393 9.28578 1.78566 9.28578H8.21423C8.80597 9.28578 9.28566 8.83431 9.28566 8.27738V7.26898M1.78566 6.26057H8.21423C8.80597 6.26057 9.28566 5.8091 9.28566 5.25217V3.23536C9.28566 2.67844 8.80597 2.22696 8.21423 2.22696H1.78566C1.19393 2.22696 0.714233 2.67844 0.714233 3.23536V5.25217C0.714233 5.8091 1.19393 6.26057 1.78566 6.26057Z" stroke="#394959" stroke-linecap="round" stroke-linejoin="round"/>
</svg>
