<svg width="13" height="13" viewBox="0 0 13 13" fill="none" xmlns="http://www.w3.org/2000/svg">
<path d="M10.8915 12.1206C11.5451 12.1795 12.1273 11.6389 12.1246 10.9915V9.29792C12.1315 9.02105 12.0362 8.75132 11.8568 8.54003C11.3509 7.94415 9.61591 7.56298 8.92818 7.70937C8.39206 7.82348 8.01699 8.36177 7.6503 8.72774C6.88575 8.29386 6.1922 7.75314 5.58912 7.125M4.25637 5.34053C4.62306 4.97456 5.16242 4.60023 5.27676 4.06517C5.42321 3.37986 5.04258 1.65593 4.45082 1.14803C4.24268 0.969376 3.97655 0.872358 3.70203 0.875055H2.00507C1.35849 0.875662 0.820547 1.45559 0.879415 2.10574C0.875508 7.06488 4.30157 11.0936 8.99996 11.9516" stroke="#394959" stroke-linecap="round" stroke-linejoin="round"/>
</svg>
